Coordinates
version=1
nRows=38
nColumns=12
inDegrees=yes

Units are S.I. units (second, meters, Newtons, ...)
Angles are in degrees

endheader
time	SC_y	SC_z	SC_x	AC_y	AC_z	AC_x	GH_y	GH_z	GH_yy	EL_x	PS_y
       0.0               -21.4          14.89          33.59          63.95          -8.13          2.652         -75.31          23.38         -56.62          98.44          114.4
  0.003469               -21.4           14.9           33.6          63.95         -8.129          2.649         -75.32          23.37         -56.61          98.43          114.4
  0.006938               -21.4           14.9           33.6          63.95         -8.128          2.647         -75.32          23.37         -56.61          98.42          114.4
   0.01041               -21.4           14.9           33.6          63.95         -8.127          2.644         -75.33          23.36         -56.61          98.41          114.4
   0.01388               -21.4          14.91           33.6          63.95         -8.126          2.641         -75.33          23.36          -56.6          98.39          114.4
   0.01735               -21.4          14.91          33.61          63.95         -8.124          2.638         -75.34          23.35          -56.6          98.38          114.4
   0.02081               -21.4          14.92          33.61          63.95         -8.123          2.634         -75.34          23.34          -56.6          98.37          114.4
   0.02428               -21.4          14.92          33.62          63.95         -8.122           2.63         -75.35          23.34         -56.59          98.35          114.4
   0.02775              -21.41          14.93          33.62          63.95          -8.12          2.626         -75.36          23.33         -56.59          98.33          114.4
   0.03122              -21.41          14.93          33.62          63.95         -8.118          2.622         -75.36          23.32         -56.58          98.31          114.4
   0.03469              -21.41          14.94          33.63          63.95         -8.117          2.618         -75.37          23.31         -56.57          98.29          114.4
   0.03816              -21.41          14.95          33.64          63.96         -8.115          2.613         -75.38          23.31         -56.57          98.27          114.4
   0.04163              -21.41          14.95          33.64          63.96         -8.113          2.607         -75.39           23.3         -56.56          98.25          114.4
    0.0451              -21.41          14.96          33.65          63.96         -8.111          2.602          -75.4          23.29         -56.56          98.22          114.4
   0.04857              -21.41          14.97          33.65          63.96         -8.108          2.596         -75.41          23.27         -56.55          98.19          114.4
   0.05204              -21.42          14.98          33.66          63.96         -8.106          2.589         -75.42          23.26         -56.54          98.16          114.4
   0.05551              -21.42          14.99          33.67          63.96         -8.103          2.581         -75.44          23.25         -56.53          98.13          114.4
   0.05897              -21.42           15.0          33.68          63.96           -8.1          2.574         -75.45          23.23         -56.52           98.1          114.4
   0.06244              -21.42          15.01          33.69          63.97         -8.097          2.565         -75.47          23.22         -56.51          98.06          114.4
   0.06591              -21.43          15.03           33.7          63.97         -8.093          2.555         -75.48           23.2          -56.5          98.01          114.4
   0.06938              -21.43          15.04          33.71          63.97         -8.089          2.545          -75.5          23.18         -56.49          97.97          114.4
   0.07285              -21.43          15.06          33.72          63.97         -8.085          2.533         -75.52          23.16         -56.47          97.92          114.4
   0.07632              -21.44          15.08          33.74          63.98          -8.08          2.521         -75.54          23.14         -56.46          97.86          114.4
   0.07979              -21.44           15.1          33.75          63.98         -8.074          2.507         -75.57          23.11         -56.44           97.8          114.4
   0.08326              -21.45          15.12          33.77          63.98         -8.068          2.491          -75.6          23.08         -56.42          97.73          114.4
   0.08673              -21.45          15.14          33.79          63.99         -8.062          2.473         -75.63          23.05          -56.4          97.65          114.4
    0.0902              -21.46          15.17          33.81          63.99         -8.054          2.454         -75.66          23.02         -56.37          97.56          114.4
   0.09366              -21.46           15.2          33.83           64.0         -8.046          2.432          -75.7          22.98         -56.35          97.47          114.4
   0.09713              -21.47          15.24          33.86           64.0         -8.036          2.407         -75.74          22.93         -56.32          97.36          114.4
    0.1006              -21.48          15.28          33.89          64.01         -8.026          2.379         -75.79          22.88         -56.28          97.23          114.4
    0.1041              -21.49          15.32          33.92          64.02         -8.013          2.347         -75.85          22.82         -56.24          97.09          114.4
    0.1075               -21.5          15.37          33.96          64.03         -7.999           2.31         -75.92          22.75          -56.2          96.92          114.4
     0.111              -21.51          15.43          34.01          64.04         -7.983          2.267         -75.99          22.68         -56.14          96.73          114.4
    0.1145              -21.53           15.5          34.06          64.05         -7.964          2.217         -76.08          22.59         -56.08          96.51          114.4
    0.1179              -21.54          15.59          34.13          64.06         -7.942          2.159         -76.18          22.48         -56.01          96.25          114.4
    0.1214              -21.56          15.68           34.2          64.08         -7.916          2.091          -76.3          22.36         -55.93          95.95          114.4
    0.1249              -21.59           15.8          34.29           64.1         -7.885           2.01         -76.45          22.21         -55.83          95.59          114.4
    0.1284              -21.62          15.93           34.4          64.12         -7.848          1.912         -76.62          22.03         -55.71          95.16          114.4
